<svg id="Layer_1" data-name="Layer 1" xmlns="http://www.w3.org/2000/svg" viewBox="0 0 600 600"><defs><style>.cls-1{fill:#010101;}</style></defs><path class="cls-1" d="M494.06,183.87c0,12,.54,23.78,1.54,35.37,20.54-1.16,41.84-1.74,63.77-1.8a275.67,275.67,0,0,0-59.6-102A407.3,407.3,0,0,0,494.06,183.87Z"/><path class="cls-1" d="M297.64,26.66a275.84,275.84,0,0,0-46.65,4c71.06,38,128,108,163.46,196.28q29.66-4,61.51-6.39-1.51-18-1.54-36.7A420.19,420.19,0,0,1,483,98.75,273.85,273.85,0,0,0,297.64,26.66Z"/><path class="cls-1" d="M425.64,534.75c4.66-29.3,9.49-59.6,9.49-90.5,0-70.35-11.87-136.95-33.31-195.7-29.6,4.46-57.44,10.1-83.63,16.67a340,340,0,0,1,29.55,139.72c0,65.5-14.62,124.37-42.18,171.72A272.73,272.73,0,0,0,419,548.57c1.47-.72,2.92-1.49,4.38-2.25Z"/><path class="cls-1" d="M564.89,237.08q-34.7-.08-67.08,1.71c8.62,63.44,31.74,117.37,62.68,143.88a275,275,0,0,0,4.4-145.59Z"/><path class="cls-1" d="M92.38,124.91c-1.6,0-3.18-.09-4.78-.13a275.91,275.91,0,0,0-61.17,131.7c0,.2-.07.4-.11.61-1.13,6.8-2,13.67-2.58,20.6-.09,1.13-.17,2.28-.25,3.41-.52,6.85-.86,13.73-.86,20.67A274.57,274.57,0,0,0,35,383.5c56.21-47.45,138.66-98.28,254.9-131C247.84,175.76,175,124.91,92.38,124.91Z"/><path class="cls-1" d="M220.31,37.81l-.82.23q-9.94,3-19.52,6.62c-.95.36-1.88.74-2.82,1.11-6.37,2.5-12.64,5.18-18.74,8.12-.17.08-.32.17-.49.26-5.82,2.82-11.47,5.89-17,9.11-1.15.67-2.31,1.3-3.46,2q-8.15,4.85-15.91,10.23c-1,.72-2,1.45-3.06,2.18a275.52,275.52,0,0,0-31.33,26l-1,.93c-.35.35-.65.72-1,1.06,86.2,5,161.26,60.43,204.24,141.59,26.67-6.83,55-12.7,85.18-17.39C357.2,139.16,296.14,69.56,220.31,37.81Z"/><path class="cls-1" d="M478.06,240.1q-29.21,2.15-56.48,5.71c21.38,59.93,33.2,127.38,33.2,198.45,0,30.87-4.49,60.46-9,89.15A276.46,276.46,0,0,0,553.56,402.25C515.44,373.79,487.62,313,478.06,240.1Z"/><path class="cls-1" d="M282.61,576.47c29.69-45.81,45.49-104.89,45.49-171.53,0-48.78-10.57-94.67-29.11-134.65-118.93,32.93-201.72,85.17-256.85,133C80.84,500.46,173.31,570.54,282.61,576.47ZM161.72,492.93a9.84,9.84,0,0,1,13.6-2.88c19.7,12.83,38.26,22.11,56.73,28.42a9.83,9.83,0,0,1-3.17,19.14,10,10,0,0,1-3.16-.53c-20-6.83-40-16.82-61.12-30.54A9.87,9.87,0,0,1,161.72,492.93ZM87,410.91a9.81,9.81,0,0,1,13.19,4.35c4.63,9.2,13.3,19.51,20.94,28.62,2.6,3.1,5.12,6.1,7.42,9a9.82,9.82,0,1,1-15.32,12.3c-2.21-2.75-4.63-5.63-7.13-8.61-8.34-9.94-17.79-21.19-23.45-32.43A9.83,9.83,0,0,1,87,410.91Z"/></svg>