<?xml version="1.0" encoding="utf-8"?>
<!-- Generator: Adobe Illustrator 24.2.0, SVG Export Plug-In . SVG Version: 6.00 Build 0)  -->
<svg version="1.1" id="Layer_1" xmlns="http://www.w3.org/2000/svg" xmlns:xlink="http://www.w3.org/1999/xlink" x="0px" y="0px"
	 viewBox="0 0 900 600" style="enable-background:new 0 0 900 600;" xml:space="preserve">
<style type="text/css">
	.st0{fill:#231F20;}
	.st1{font-family:'Arial-Black';}
	.st2{font-size:58.6972px;}
</style>
<path class="st0" d="M537.6,522c-10-3.5-19.6-8.3-28.4-14.2c-2.3-1.4-5.3-0.7-6.8,1.6c-1.4,2.2-0.8,5.2,1.4,6.7
	c9.5,6.4,19.8,11.5,30.6,15.3c2.6,0.8,5.3-0.7,6.1-3.3C541.3,525.6,540,522.9,537.6,522L537.6,522z"/>
<path class="st0" d="M482.1,484.7c-3.8-4.6-8.2-9.7-10.5-14.3c-1.3-2.4-4.3-3.3-6.7-1.9c-2.3,1.2-3.2,4-2.1,6.4
	c2.8,5.6,7.6,11.2,11.7,16.2c1.2,1.5,2.5,2.9,3.6,4.3c1.6,2.2,4.7,2.7,6.9,1.1s2.7-4.7,1.1-6.9c-0.1-0.1-0.2-0.2-0.3-0.3
	C484.7,487.7,483.4,486.2,482.1,484.7z"/>
<path class="st0" d="M501.7,456.5c0.8,1.6,19.1,39.2,55.9,59.2c10.4,5.7,19.5,8.4,26.2,9.7c-6.5-3-14-7-22-12.1
	C529.3,492.7,509.3,467.1,501.7,456.5z"/>
<path class="st0" d="M622.7,278.4c1.4-0.3,35.2-6.7,62.1,11.3c7.6,5.1,12.6,10.8,15.8,15.4c-4.4-3.5-9.8-7.2-16.2-10.7
	C658.4,280,632.9,278.5,622.7,278.4z"/>
<path class="st0" d="M744.2,298.9c-54-58.9-140.7-40-212.5-123.3c-32.3-37.4,174.9-50.8-10-106.1c-62-18.5-4-35.7-28.1-42.5
	c-34.2-9.7-56.2,6.6-105.9,9.4c-17,1-49.8,3.6-55.9,7.9c-11.4,8.1-17.2,12.2-24.4,16.5c-13.7,8.2-19.1-14.1-50.2-14.5
	c-31.2,2.4-36,12.4-53.2,12.2c-20.1-0.3-27.2-7.4-50.5-8.8c-15.6-1-139.3,11.7-73.5,24.5c28.1,5.4-42,40.5-34.5,67.5
	c6.9,24.8,120,19.7,91.7,44.9c-48.1,42.9-18.2,53-26.5,77.8c-3.7,11.1-45.8,6.1-35.9,34.2c15.6,44.1,50.7,18.2,66.7,37
	c17.1,20.1-49.7,32.4-51.4,71.2c-1.6,36.9,102.1-1.2,122.6,20.1c11,11.4-15.5,66.5,14.3,93.8c37.6,34.5,49.4-12.2,160,9.1
	c51.8,10,85.7,7.7,114.4,9.3c31.5,1.8,38,5.5,75.3,17.1c47.1,14.6,86.2,10.2,111.5-1.5c41.1-19.1,75.3-74.2,82.4-96.5
	C776.9,439.3,793.4,352.6,744.2,298.9z M570.3,118.5c4.2-2.4,7.6-5.1,10.4-7.8c-1.8,3.9-4.9,8.6-9.8,12.3
	c-17.3,13.1-41.5,1.8-42.5,1.3C535.6,125.7,553.3,128.1,570.3,118.5z M102.1,148.1c-20.8,6.1-39.5-12.9-40.3-13.7
	c6.2,3.9,22,12.4,41.3,9.3c4.8-0.8,8.9-2.1,12.5-3.6C112.4,143.1,108,146.4,102.1,148.1z M107.9,315.5
	c-11.8,6.9-22.4-14.6-22.8-15.5c3.5,4.4,12.4,14,23.3,10.5c2.7-0.9,5.1-2.4,7.1-4.1C113.8,309.8,111.3,313.5,107.9,315.5z
	 M109.8,416.5c-5.9-1.7-10.3-5-13.4-8c3.5,1.5,7.7,2.9,12.5,3.6c19.3,3.1,35-5.4,41.3-9.3C149.3,403.6,130.6,422.6,109.8,416.5z
	 M253.9,529.1c-19.3-1.1-29.5-22.4-29.9-23.3c4.1,5,14.9,16.8,32,19.9c4.2,0.8,8.1,0.9,11.6,0.7C264.1,528,259.4,529.4,253.9,529.1z
	 M304.3,493.8c-28,13.6-53.3-28.5-54.3-30.3c8.4,8.5,29.6,27.3,55.6,20.5c6.4-1.7,12-4.7,16.8-8
	C318.3,482.7,312.3,489.9,304.3,493.8z M719.2,309.4c13.5,14.6,23.7,32,29.8,51c-11,0-21.6,0.3-31.9,0.9c-0.5-5.8-0.8-11.7-0.8-17.7
	C716.3,332.2,717.2,320.7,719.2,309.4z M618,265c34.4,0,67.5,12.9,92.8,36.1c-2.9,14-4.3,28.3-4.3,42.6c0,6.2,0.3,12.4,0.8,18.4
	c-10.6,0.8-20.9,1.9-30.8,3.2c-17.7-44.2-46.2-79.2-81.8-98.2C602.4,265.7,610.2,265,618,265z M522.2,304l0.5-0.5
	c4.9-4.7,10.1-9.1,15.7-13l1.5-1.1c2.6-1.8,5.3-3.5,8-5.1c0.6-0.3,1.2-0.7,1.7-1c2.8-1.6,5.6-3.2,8.5-4.6l0.2-0.1
	c3-1.5,6.2-2.8,9.4-4.1l1.4-0.6c3.2-1.2,6.5-2.3,9.8-3.3l0.4-0.1c38,15.9,68.5,50.7,87.2,96.1c-15.1,2.4-29.3,5.3-42.6,8.7
	c-21.5-40.6-59.1-68.4-102.2-70.9C521.9,304.3,522,304.2,522.2,304z M412.1,522.1c-20.8,6.1-39.5-12.9-40.3-13.7
	c6.2,3.9,22,12.4,41.3,9.3c4.8-0.8,8.9-2.1,12.5-3.6C422.5,517.1,418,520.3,412.1,522.1z M411.8,50.1c1-0.8,25.7-19.8,53.1-13.7
	c7.8,1.7,13.6,5,17.7,8c-4.7-1.5-10.2-2.9-16.4-3.6C440.7,37.7,420,46.2,411.8,50.1z M480.4,402.6c0-3.5,0.2-6.9,0.4-10.3
	c0-0.6,0.1-1.1,0.1-1.7c0.3-3.5,0.7-6.9,1.3-10.3c0-0.1,0-0.2,0-0.3c4.1-24.3,14.7-47,30.6-65.9c0.8,0,1.6,0.1,2.4,0.1
	c41.4,0,77.8,25.5,98.8,63.8c-58.2,16.4-99.4,41.8-127.6,65.6C482.5,430.3,480.4,416.5,480.4,402.6z M490.2,453.5
	c27.6-23.9,69-50.1,128.5-66.6c9.7,21.1,14.7,44.1,14.6,67.4c0,33.3-7.9,62.9-22.8,85.8C556.9,537.1,510,503.3,490.2,453.5z
	 M622,540.2c13.8-23.7,21.1-53.2,21.1-85.9c0.1-24.1-5-47.9-14.8-69.9c13.1-3.3,27-6.1,41.8-8.3c10.7,29.4,16.7,62.7,16.7,97.9
	c0,15.5-2.4,30.6-4.8,45.3h0l-1.1,5.8l-2.2,1.1C661,534.9,641.7,539.7,622,540.2z M690.4,544c-18.6,9.7-39.4,6.9-40.3,6.8
	c6.5-0.2,22.8-1.4,40.5-9.2c4.4-1.9,8.1-3.9,11.2-5.8C699.3,538.2,695.7,541.2,690.4,544z M692.1,518.6c2.3-14.4,4.5-29.2,4.5-44.6
	c0-35.6-5.9-69.3-16.6-99.3c9.1-1.2,18.5-2.1,28.3-2.9c4.8,36.5,18.7,66.9,37.8,81.1C735.4,479.9,716.5,502.9,692.1,518.6z
	 M749.6,443.1c-15.5-13.3-27-40.2-31.4-72c10.8-0.6,22-0.9,33.6-0.9C757.6,394.3,756.8,419.5,749.6,443.1z"/>
<path class="st0" d="M595.8,157.4c-7-4.7-28.8-4.1-33.5,2.9c-4.7,7,5.4,23.8,12.4,28.5c7,4.7,16.4,2.9,21.1-4.1
	C600.5,177.7,602.8,162.1,595.8,157.4z M584.7,186.8c-6.3,3.5-11.9-7.4-12.1-7.9c1.9,2.2,6.6,7.1,12.4,5.3c1.4-0.4,2.7-1.2,3.8-2.1
	C587.9,183.9,586.5,185.8,584.7,186.8z"/>
<path class="st0" d="M45.3,174.5c-13.5,0-24.4,2.8-24.4,12.3c0,9.5,10.9,17.2,24.4,17.2s24.4-7.7,24.4-17.2
	C69.7,177.3,58.8,174.5,45.3,174.5z M28.2,182.1c-1.3,0.7-2.5,1.5-3.4,2.3c0.6-1.2,1.6-2.5,3.2-3.7c5.6-3.9,13.1-0.8,13.4-0.6
	C39.2,179.8,33.7,179.2,28.2,182.1z M48.1,200.1c-1.9-0.3-3.4-1.2-4.5-2c1.2,0.3,2.5,0.6,4,0.7c6.2,0.4,11-2.5,12.8-3.8
	C60.3,195.3,54.8,201.3,48.1,200.1z"/>
<path class="st0" d="M118.8,480c-8.4,0-16.7,17.8-16.7,26.2s6.8,15.2,15.2,15.2s22.7-6.8,22.7-15.2S127.2,480,118.8,480z
	 M117.1,518.2c-1.9-0.3-3.4-1.2-4.5-2c1.2,0.3,2.5,0.6,4,0.7c6.2,0.4,11-2.5,12.8-3.8C129.2,513.4,123.8,519.4,117.1,518.2z
	 M117.8,487.7c-1.5,0.1-2.9,0.4-4,0.7c1.1-0.8,2.5-1.6,4.5-2c6.7-1.2,12.2,4.8,12.4,5.1C128.7,490.2,124,487.3,117.8,487.7z"/>
<path class="st0" d="M58.5,225.9c-4,0-7.2,4.3-7.2,9.7s3.2,9.7,7.2,9.7s11.2-3.3,11.2-8.6S62.5,225.9,58.5,225.9z M57.3,228.3
	c-0.8,0-1.5,0.2-2.2,0.4c0.6-0.4,1.4-0.9,2.4-1c3.6-0.6,6.5,2.6,6.6,2.7C63.1,229.7,60.6,228.1,57.3,228.3z M61.1,242.6
	c-0.1-0.6-2.7,1.4-2.5,0.5c0,0.5,3.2-2.2,3.4-1.9c0.7,1.3,2.5-0.7,3.3-1.6C65.2,239.9,61.5,244.8,61.1,242.6z"/>
<path class="st0" d="M800.8,522.7c-4.6,0-13,5.8-13,13c0,7.2,8.4,13,13,13s16.7-12.3,16.7-19.5C817.5,522.2,805.4,522.7,800.8,522.7
	z M802.8,545.7c-6.3,3.5-11.9-7.4-12.1-7.9c1.9,2.2,6.6,7.1,12.4,5.3c1.4-0.4,2.7-1.2,3.8-2.1C805.9,542.9,804.5,544.7,802.8,545.7z
	"/>
<path class="st0" d="M736.9,543.5c-13.5,0-24.4,2.8-24.4,12.3c0,9.5,10.9,17.2,24.4,17.2s24.4-7.7,24.4-17.2
	C761.4,546.3,750.4,543.5,736.9,543.5z M726.1,551.4c-6.1-0.2-9.4,5.7-10.7,8.3c0.1-0.5,2.8-12.5,9.7-10.7c2,0.5,3.7,2,5.1,3.4
	C729,551.9,727.6,551.5,726.1,551.4z M750.7,565c-1.7,1-3.3,1.3-4.7,1.4c1.1-0.5,2.3-1.2,3.5-2.1c4.9-3.8,6.6-9.1,7.2-11.3
	C756.8,553.3,756.6,561.5,750.7,565z"/>
<path class="st0" d="M826.8,447.9c-9.2,0-21.3,13.9-21.3,23.1c0,9.2,7.5,16.7,16.7,16.7c9.2,0,34.3-24.9,34.3-34
	C856.5,444.3,836,447.9,826.8,447.9z M820.5,451.8c2.1-1,4.1-1.3,5.7-1.2c-1.4,0.5-2.9,1.2-4.4,2.2c-6.2,4-8.8,10.2-9.7,12.8
	C812.2,465,813.2,455.4,820.5,451.8z M819.6,483.6c-1.9-0.3-3.4-1.2-4.5-2c1.2,0.3,2.5,0.6,4,0.7c6.2,0.4,11-2.5,12.8-3.8
	C831.8,478.8,826.3,484.8,819.6,483.6z M850.9,459.7c-0.8,1.2-2.1,1.9-3.2,2.4c0.6-0.7,1.3-1.5,1.7-2.5c1.9-4-0.1-8-1.1-9.6
	C848.6,450.2,853.8,455.5,850.9,459.7z"/>
<text transform="matrix(1 0 0 1 184.5527 191.458)" class="st1 st2">Kid </text>
<text transform="matrix(1 0 0 1 182.0755 264.9753)" class="st1 st2">Kid </text>
<text transform="matrix(1 0 0 1 182.0752 341.7711)" class="st1 st2">Kid </text>
</svg>
