<?xml version="1.0" encoding="utf-8"?>
<!-- Generator: Adobe Illustrator 24.2.0, SVG Export Plug-In . SVG Version: 6.00 Build 0)  -->
<svg version="1.1" id="Layer_1" xmlns="http://www.w3.org/2000/svg" xmlns:xlink="http://www.w3.org/1999/xlink" x="0px" y="0px"
	 viewBox="0 0 600 600" style="enable-background:new 0 0 600 600;" xml:space="preserve">
<style type="text/css">
	.st0{fill:#231F20;}
	.st1{fill:#54B948;}
	.st2{font-family:'Adca';}
	.st3{font-size:50px;}
	.st4{letter-spacing:5;}
</style>
<path class="st0" d="M546.7,309.8c-64.2-75.5-182.2-56.4-189-54.5c-3.7,1.1-7.5,1.9-11.3,2.5c-4.1,0.6-8.3,1-12.4,1.1
	c-4,0.3-8.1,0.1-12-0.6c-4.2-0.7-8.4-1.9-12.3-3.5c-10.5-4.2-20.5-9.5-29.9-15.8c-9.6-6.7-14.4-10-18-15.6c-4-6.4-6-13.7-6-21.2
	c0-4.7,0.1-14.1,7.3-22.4c4.6-5,10.5-8.5,17.2-10.1c3.3,0,8.8,0,15.7,0.2c10,0.3,13.1,0.6,16.4-1.2c1.9-1.1,5.8-3.9,7.6-11.8
	c1.7-14.1,1.6-28.4-0.3-42.5c-3.1-21.8-6.1-43.2-23.4-61.3c-21.3-22.3-51.2-26.1-63.9-27.7c-12.1-1.5-24.4-1.2-36.5,0.8
	c-16.8,2.9-32.8,9.2-46.9,18.6c-3.4,2.5-8.4,6.1-14.4,10.4C123,63.3,117.1,67.4,110,71.7c-13.7,8.2-20.4,10.1-25.3,11.1
	c-3.2,0.6-6.5,1-9.8,1.2c-3.3-0.1-6.6-0.3-9.8-0.8c-7.7-1-9.4-2.4-12.3-1.4c-4.4,1.5-7.6,7-7.1,12c0.4,4.7,3.9,7.5,6.1,9.4
	c3.2,2.6,7,4.4,11.1,5c15.5,2.4,85.2,51.7,77.6,70.8c-6.4,16.1-61.8-5.3-79.2,21.2c-8.9,13.5-0.4,28.2-15.1,47.1
	c-3.9,5.1-9.6,10.6-10.2,19.3c-0.5,8.7,4.3,15.5,5.8,17.7c16.4,25-16.5,71.6,3.1,110.3c11.5,22.7,28.2,37.6,40.8,48.9
	c11.8,10.5,34.3,30.2,70,41.6c12.8,4.1,26.1,6.7,39.5,7.9c15.9-2.1,27.7-0.1,35.2,1.9c3.3,0.9,6.5,2,12.9,4.3
	c13.2,4.8,24,9.3,28.8,11.5c17.8,8,32.2,17.7,48.9,28.9c11.3,7.6,21.6,14.8,38.4,22.4c3,1.3,6,2.5,9.6,3.8c15,5.2,30.6,8.1,46.4,8.8
	c15.6-0.3,57.1-3,97.2-30.8c33.2-23,56.7-57.5,65.9-96.9C580.8,435.1,593.9,365.3,546.7,309.8z M521.6,320.3
	c13.5,14.6,23.7,32,29.8,51c-11,0-21.6,0.3-31.9,0.9c-0.5-5.8-0.8-11.7-0.8-17.7C518.7,343.1,519.7,331.6,521.6,320.3z M420.4,275.9
	c34.4,0,67.5,12.9,92.8,36.1c-2.9,14-4.3,28.3-4.3,42.6c0,6.2,0.3,12.4,0.8,18.4c-10.6,0.8-20.9,1.9-30.8,3.2
	c-17.7-44.2-46.2-79.2-81.8-98.2C404.8,276.6,412.6,275.9,420.4,275.9z M324.6,314.9l0.5-0.5c4.9-4.7,10.1-9.1,15.7-13l1.5-1.1
	c2.6-1.8,5.3-3.5,8-5.1c0.6-0.3,1.2-0.7,1.7-1c2.8-1.6,5.6-3.2,8.5-4.6l0.2-0.1c3-1.5,6.2-2.8,9.4-4.1l1.4-0.6
	c3.2-1.2,6.5-2.3,9.8-3.3l0.4-0.1c38,15.9,68.5,50.7,87.2,96.1c-15.1,2.4-29.3,5.3-42.6,8.7c-21.5-40.6-59.1-68.4-102.2-70.9
	C324.3,315.2,324.4,315,324.6,314.9z M282.8,413.5c0-3.5,0.2-6.9,0.4-10.3c0-0.6,0.1-1.1,0.1-1.7c0.3-3.5,0.7-6.9,1.3-10.3
	c0-0.1,0-0.2,0-0.3c4.1-24.3,14.7-47,30.6-65.9c0.8,0,1.6,0.1,2.4,0.1c41.4,0,77.8,25.5,98.8,63.8c-58.2,16.4-99.4,41.8-127.6,65.6
	C284.9,441.2,282.8,427.4,282.8,413.5z M412.9,551c-53.6-3-100.5-36.8-120.3-86.7c27.6-23.9,69-50.1,128.5-66.6
	c9.7,21.1,14.7,44.1,14.6,67.4C435.7,498.5,427.8,528.1,412.9,551z M484.5,530.1l-1.1,5.8l-2.2,1.1c-17.7,8.7-37,13.5-56.8,14
	c13.8-23.7,21.1-53.2,21.1-85.9c0.1-24.1-5-47.9-14.8-69.9c13.1-3.3,27-6.1,41.8-8.3c10.7,29.4,16.7,62.7,16.7,97.9
	C489.2,500.3,486.8,515.5,484.5,530.1L484.5,530.1z M494.6,529.5c2.3-14.4,4.5-29.2,4.5-44.6c0-35.6-5.9-69.3-16.6-99.3
	c9.1-1.2,18.5-2.1,28.3-2.9c4.8,36.5,18.7,66.9,37.8,81.1C537.9,490.8,519,513.8,494.6,529.5z M552,454c-15.5-13.3-27-40.2-31.4-72
	c10.8-0.6,22-0.9,33.6-0.9C560,405.2,559.3,430.4,552,454z"/>
<path class="st0" d="M387.6,522c-10-3.5-19.6-8.3-28.4-14.2c-2.3-1.4-5.3-0.7-6.8,1.6c-1.4,2.2-0.8,5.2,1.4,6.7
	c9.5,6.4,19.8,11.5,30.6,15.3c2.6,0.8,5.3-0.7,6.1-3.3C391.3,525.6,390,522.9,387.6,522L387.6,522z"/>
<path class="st0" d="M332.1,484.7c-3.8-4.6-8.2-9.7-10.5-14.3c-1.3-2.4-4.3-3.3-6.7-1.9c-2.3,1.2-3.2,4-2.1,6.4
	c2.8,5.6,7.6,11.2,11.7,16.2c1.2,1.5,2.5,2.9,3.6,4.3c1.6,2.2,4.7,2.7,6.9,1.1s2.7-4.7,1.1-6.9c-0.1-0.1-0.2-0.2-0.3-0.3
	C334.7,487.7,333.4,486.2,332.1,484.7z"/>
<path class="st0" d="M363.1,71.7c7.3,4.6,12,12.4,12.9,21c2.6,7,3.5,14.6,2.7,22.1c-0.2,2-0.6,4-1.1,5.9c-0.2,0.4-3.5,8.2-0.1,11.6
	c1.6,1.6,4.1,1.6,8,1.5c6.2-0.1,8-1.8,11.9-1.5c2.6,0.1,6.3,1.1,10.6,5c2,2.1,3.5,4.5,4.4,7.2c3.5,9.9-2.4,19.2-3.3,20.6
	c-3.5,3.2-4.7,7.6-3.1,10.6c0.9,1.9,2.7,3.2,4.7,3.5c3.9,0.5,7.1-3.7,13-11.1c14.7-18.4,17.8-20.8,22.2-30.2
	c1.3-2.7,2.4-5.5,3.4-8.4c0.7-3.1,0.8-6.2,0.3-9.3c-0.6-4-2.5-10.2-15-22.5c-6.8-6.6-14.2-12.6-22.1-17.8
	C400.9,69.6,387,62.5,372,59.2c-8-2.4-14.3,0.5-15.1,3.8C356.4,65.6,359,69.2,363.1,71.7z"/>
<path class="st0" d="M339,182.6c-3.9,1.5-7.4,3.7-10.4,6.6c-3.3,3.1-6,6.8-7.8,10.8c-1.8,9.5-2.4,19.2-2.1,28.8
	c-0.5,8.5,3.1,15.2,8,16.4c1.9,0.4,3.9,0.2,5.7-0.7c13-8,24.1-18.8,32.3-31.7c1.6-2.6,2.6-5.5,2.9-8.6c0.4-5.5-3.3-6-8.3-17.7
	c-1-2.4-1.6-4-3.4-5.2c-2.3-1.5-5.1-1.1-9.3-0.6C343.9,181.2,341.4,181.7,339,182.6z"/>
<path class="st0" d="M427.2,205.1c0.7,6.1,3.7,10.9,5.3,13.4c3.3,5.1,7.4,9.6,12.1,13.3c5.5,3.1,11.8,6.3,18.7,9.5
	c7.3,3.4,14.2,6.2,20.4,8.5c11.6,5.3,22.2,5.6,25.7,1.8c0.7-0.8,1.8-2.4,1.2-5.6c-4.5-11.8-10.8-22.8-18.6-32.7
	c-4.1-5.3-8.5-10.3-13.2-15c-3.2-3.1-6.8-5.6-10.8-7.5c-7.5-3.5-9.6-0.3-27.6-2.2c-3.7-0.4-6.2-0.8-8.4,0.3
	c-2.9,1.3-3.5,4.1-4.3,8.3C427.1,199.8,426.9,202.4,427.2,205.1z"/>
<text transform="matrix(1 0 0 1 103.5123 265.5315)" class="st1 st2 st3 st4">KID</text>
<text transform="matrix(1 0 0 1 103.5125 334.2882)" class="st1 st2 st3 st4">ON</text>
<text transform="matrix(1 0 0 1 103.5125 402.1984)" class="st1 st2 st3 st4">FIRE</text>
</svg>
