<?xml version="1.0" encoding="utf-8"?>
<!-- Generator: Adobe Illustrator 24.2.0, SVG Export Plug-In . SVG Version: 6.00 Build 0)  -->
<svg version="1.1" id="Layer_1" xmlns="http://www.w3.org/2000/svg" xmlns:xlink="http://www.w3.org/1999/xlink" x="0px" y="0px"
	 viewBox="0 0 600 600" style="enable-background:new 0 0 600 600;" xml:space="preserve">
<path d="M564.2,162.7c-2.7,0-5.4,1.1-7.6,3.2L324.1,398c-13.2,13.2-35,13.2-48.2,0l-232.6-232c-2.2-2.2-4.9-3.2-7.6-3.2
	c-2.7,0-5.4,1-7.5,3.2c-4.3,4.3-4.3,10.8,0,15.1l232.5,232.1c10.9,10.9,25,16.2,39.3,16.2h0c14.2,0,28.3-5.3,39.2-16.2L571.8,181
	c4.3-4.3,4.3-10.8,0-15.1C569.6,163.8,566.9,162.7,564.2,162.7L564.2,162.7z"/>
</svg>
