<?xml version="1.0" encoding="utf-8"?>
<!-- Generator: Adobe Illustrator 24.2.0, SVG Export Plug-In . SVG Version: 6.00 Build 0)  -->
<svg version="1.1" id="Layer_1" xmlns="http://www.w3.org/2000/svg" xmlns:xlink="http://www.w3.org/1999/xlink" x="0px" y="0px"
	 viewBox="0 0 600 600" style="enable-background:new 0 0 600 600;" xml:space="preserve">
<path d="M384.3,208.3v-40.2c0-45.2-36.7-81.9-81.9-81.9h-5.3c-45.2,0-81.9,36.7-81.9,81.9v40.1c-20.6,1.6-41.1,3.8-61.5,6.6v-46.8
	C153.8,88.9,218.1,24.9,297.2,25c0.1,0,0.1,0,0.2,0h5.3c79,0.1,143,64.1,143.1,143.1v46.8C425.4,212.1,404.9,209.9,384.3,208.3z
	 M109.9,272.7c125.7-23.8,254.7-23.8,380.3,0c16.8,3.2,29,18,28.9,35.1v215.8c0,15.4-10.9,28.6-26,31.5l-19.5,3.7
	C416.4,569.6,358.3,575,300,575c-58.2,0-116.3-5.4-173.5-16.3l-19.6-3.7c-15.1-2.9-26.1-16.1-26.1-31.5v-219
	c0-15.4,11-28.6,26.1-31.5L109.9,272.7z M264.2,474.1c23.1,9,48.7,9,71.7,0c4.1-1.6,6.2-6.1,4.6-10.2l-18.7-52.7
	c15.2-12,17.8-34.1,5.7-49.3c-12-15.2-34.1-17.8-49.3-5.7c-15.2,12-17.8,34.1-5.7,49.3c1.7,2.1,3.6,4,5.7,5.7l-18.7,52.7
	C258,467.9,260.1,472.5,264.2,474.1z"/>
</svg>
