<?xml version="1.0" encoding="utf-8"?>
<!-- Generator: Adobe Illustrator 24.2.0, SVG Export Plug-In . SVG Version: 6.00 Build 0)  -->
<svg version="1.1"
	 id="Layer_1" xmlns:cc="http://creativecommons.org/ns#" xmlns:dc="http://purl.org/dc/elements/1.1/" xmlns:inkscape="http://www.inkscape.org/namespaces/inkscape" xmlns:rdf="http://www.w3.org/1999/02/22-rdf-syntax-ns#" xmlns:sodipodi="http://sodipodi.sourceforge.net/DTD/sodipodi-0.dtd" xmlns:svg="http://www.w3.org/2000/svg"
	 xmlns="http://www.w3.org/2000/svg" xmlns:xlink="http://www.w3.org/1999/xlink" x="0px" y="0px" viewBox="0 0 600 600"
	 style="enable-background:new 0 0 600 600;" xml:space="preserve">
<g transform="translate(0,-952.36218)">
	<path d="M575,1239.8c-0.2-4.9-2.2-10.6-5.6-14.2l-110-116.9c-7.5-6.7-21.7-9.5-30.1-1.7c-8.2,7.6-8,22.4,0.2,30.1l77.3,82.1H45.6
		c-11.4,0-20.6,9.2-20.6,20.6s9.2,20.6,20.6,20.6h461.3l-77.3,82.1c-7,7.1-8.3,22.4-0.2,30.1c8.1,7.7,22.9,5.2,30.1-1.7l110-116.9
		C573.2,1250,575,1245.3,575,1239.8z"/>
</g>
</svg>
