<?xml version="1.0" encoding="utf-8"?>
<!-- Generator: Adobe Illustrator 24.2.0, SVG Export Plug-In . SVG Version: 6.00 Build 0)  -->
<svg version="1.1" id="Layer_1" xmlns="http://www.w3.org/2000/svg" xmlns:xlink="http://www.w3.org/1999/xlink" x="0px" y="0px"
	 viewBox="0 0 600 600" style="enable-background:new 0 0 600 600;" xml:space="preserve">
<path d="M300,25C148.4,25,25,148.4,25,300c0,151.6,123.4,275,275,275c151.7,0,275-123.4,275-275C575,148.4,451.6,25,300,25z
	 M481.5,436.8c-23.8-24.2-81.1-50.4-181.5-50.4s-157.7,26.3-181.6,50.4C89.7,398.6,72.4,351.4,72.4,300
	C72.4,174.5,174.5,72.4,300,72.4c125.5,0,227.7,102.1,227.7,227.6C527.6,351.4,510.3,398.6,481.5,436.8z"/>
<circle cx="300" cy="242.2" r="109"/>
</svg>
