<?xml version="1.0" encoding="utf-8"?>
<!-- Generator: Adobe Illustrator 24.2.0, SVG Export Plug-In . SVG Version: 6.00 Build 0)  -->
<svg version="1.1" xmlns="http://www.w3.org/2000/svg" xmlns:xlink="http://www.w3.org/1999/xlink" x="0px" y="0px"
	 viewBox="0 0 600 600" style="enable-background:new 0 0 600 600;" xml:space="preserve">
<g id="Layer_2">
</g>
<g id="Layer_1">
	<path d="M360.8,299.9L562.4,98.3c16.8-16.8,16.8-44,0-60.8c-16.8-16.8-44-16.8-60.8,0L300,239.1L98.4,37.5
		c-16.8-16.8-44-16.8-60.8,0s-16.8,44,0,60.8l201.6,201.6L37.6,501.5c-16.8,16.8-16.8,44,0,60.8c8.1,8.1,19.1,12.7,30.1,12.7
		s22-4.1,30.1-12.7L300,360.7l201.6,201.6c8.1,8.1,19.1,12.7,30.1,12.7c11,0,22-4.1,30.1-12.7c16.8-16.8,16.8-44,0-60.8L360.8,299.9
		z"/>
</g>
</svg>
