<svg id="Layer_1" data-name="Layer 1" xmlns="http://www.w3.org/2000/svg" viewBox="0 0 600 600"><defs><style>.cls-1{fill:#262626;}.cls-2{fill:#fff;}</style></defs><g id="Circle_Black" data-name="Circle Black"><g id="Facebook-7"><circle id="back-68" class="cls-1" cx="300" cy="300" r="275"/><path id="Facebook-8" class="cls-2" d="M433.81,149.62H166.19a16.57,16.57,0,0,0-16.57,16.57V433.81a16.57,16.57,0,0,0,16.57,16.57h144.1V333.91H270.88v-45.3h39.21V255.09c0-38.82,23.69-60,58.24-60a312.64,312.64,0,0,1,35,1.81v40.57h-24c-18.89,0-22.52,9-22.52,22.13v29h45l-5.89,45.3H357.07V450.38h76.68a16.56,16.56,0,0,0,16.56-16.57V166.19A16.57,16.57,0,0,0,433.81,149.62Z"/></g></g></svg>