<svg id="Layer_1" data-name="Layer 1" xmlns="http://www.w3.org/2000/svg" viewBox="0 0 600 600"><defs><style>.cls-1{fill:#262626;}.cls-2,.cls-3{fill:#fff;}.cls-2{fill-rule:evenodd;}</style></defs><g id="Circle_Black" data-name="Circle Black"><g id="Github-7"><circle id="back-67" class="cls-1" cx="298.41" cy="300" r="275"/><g id="Github-8"><path class="cls-2" d="M298.41,149.82a154,154,0,0,0-48.53,300.1c7.7,1.43,10.48-3.36,10.48-7.37V413.88c-42.83,9.26-51.76-18.18-51.76-18.18-7-17.79-17.08-22.58-17.08-22.58-14-9.51,1-9.32,1-9.32a32.35,32.35,0,0,1,23.62,15.85c13.72,23.56,36,16.76,44.84,12.94A32.4,32.4,0,0,1,270.78,372c-34.23-3.88-70.2-17.15-70.2-76.16a59.29,59.29,0,0,1,15.91-41.28A55.07,55.07,0,0,1,218,213.81s12.94-4.14,42.32,15.79a146.28,146.28,0,0,1,77.13,0c29.44-19.93,42.32-15.79,42.32-15.79a55,55,0,0,1,1.48,40.77,59.23,59.23,0,0,1,15.86,41.28c0,59.2-36,72.21-70.27,76a36.86,36.86,0,0,1,10.41,28.53v42.26c0,4.07,2.79,8.86,10.62,7.37A154,154,0,0,0,299.06,150Z"/><path class="cls-3" d="M202.71,370.92c0,.77-1.49,1-2.59.45s-1.74-1.55-1.42-2.33,1.55-1,2.65-.45S203.1,370.14,202.71,370.92Z"/><path class="cls-3" d="M209,377.84c-.71.71-2.2.39-3.17-.71a2.4,2.4,0,0,1-.46-3.17c.78-.71,2.14-.39,3.17.71S209.76,377.19,209,377.84Z"/><path class="cls-3" d="M215.07,386.77c-1,.65-2.52,0-3.43-1.36s-1-3,0-3.69,2.46,0,3.43,1.3S216,386.06,215.07,386.77Z"/><path class="cls-3" d="M223.35,395.31c-.84.91-2.65.65-3.95-.58s-1.74-3-.84-4,2.66-.64,3.95.58S224.26,394.41,223.35,395.31Z"/><path class="cls-3" d="M234.87,400.29c-.39,1.17-2.14,1.75-3.88,1.23s-2.85-1.94-2.53-3.17,2.14-1.74,3.89-1.23S235.19,399.06,234.87,400.29Z"/><path class="cls-3" d="M247.42,401.2c0,1.29-1.42,2.33-3.23,2.33s-3.37-1-3.37-2.2,1.43-2.33,3.3-2.39,3.3,1,3.3,2.26Z"/><path class="cls-3" d="M259.2,399.19a3.21,3.21,0,0,1-2.91,2.85c-1.81.32-3.43-.39-3.63-1.62s1-2.58,2.85-2.91S258.94,398,259.2,399.19Z"/></g></g></g></svg>